{"title":"The.Girl.Next.Door.1999.DOC.DVDRip.XviD-CG","uid":7687898,"size":734013440,"categoryP":"video","categoryS":"movies","magnet":"?xt=urn:btih:1a5139b24fef1c669ac9558511b752b57f7f0000&amp;dn=The.Girl.Next.Door.1999.DOC.DVDRip.XviD-CG&amp;tr=udp%3A%2F%2Ftracker.openbittorrent.com%3A80&amp;tr=udp%3A%2F%2Fopen.demonii.com%3A1337&amp;tr=udp%3A%2F%2Ftracker.coppersurfer.tk%3A6969&amp;tr=udp%3A%2F%2Fexodus.desync.com%3A6969","seeders":0,"leechers":7,"uploader":"ScreaminJayHawkins","files":1,"time":1349013952,"description":"A documentary about the rise to fame of adult movie star Stacy Valentine. Starting out as an under-confident woman pushed into entering a Hustler Magazine contest by her domineering husband, Stacy quickly became more sure of herself after winning the contest, dumping the husband, and embarking upon a remarkably successful career in the unconventional field of hardcore pornAlthough having attained a fair measure of success, her life is still not without disappointements, as her past has made it difficult for her to drop her emotional barriers and share a completely trusting relationship with others. \n\nGeneral\nFormat : AVI\nFormat/Info : Audio Video Interleave\nFile size : 700 MiB\nDuration : 1h 22mn\nOverall bit rate : 1 191 Kbps\nWriting application : VirtualDubMod 1.5.4.1 (build 2178/release)\nWriting library : VirtualDubMod build 2178/release\n\nVideo\nID : 0\nFormat : MPEG-4 Visual\nFormat profile : Advanced Simple@L5\nFormat settings, BVOP : Yes\nFormat settings, QPel : No\nFormat settings, GMC : No warppoints\nFormat settings, Matrix : Custom\nCodec ID : XVID\nCodec ID/Hint : XviD\nDuration : 1h 22mn\nBit rate : 1 073 Kbps\nWidth : 512 pixels\nHeight : 384 pixels\nDisplay aspect ratio : 4:3\nFrame rate : 25.000 fps\nColor space : YUV\nChroma subsampling : 4:2:0\nBit depth : 8 bits\nScan type : Progressive\nBits/(Pixel*Frame) : 0.218\nStream size : 630 MiB (90%)\nWriting library : XviD 1.1.2 (UTC 2006-11-01)\n\nAudio\nID : 1\nFormat : MPEG Audio\nFormat version : Version 1\nFormat profile : Layer 3\nMode : Joint stereo\nMode extension : MS Stereo\nCodec ID : 55\nCodec ID/Hint : MP3\nDuration : 1h 22mn\nBit rate mode : Variable\nBit rate : 106 Kbps\nNominal bit rate : 128 Kbps\nChannel(s) : 2 channels\nSampling rate : 48.0 KHz\nStream size : 62.2 MiB (9%)\nAlignment : Aligned on interleaves\nInterleave, duration : 24 ms (0.60 video frame)\nInterleave, preload duration : 586 ms\nWriting library : LAME3.97\nEncoding settings : -m j -V 4 -q 2 -lowpass 17 --abr 128","torrent":{"xt":"urn:btih:1a5139b24fef1c669ac9558511b752b57f7f0000","amp;dn":"The.Girl.Next.Door.1999.DOC.DVDRip.XviD-CG","amp;tr":["udp%3A%2F%2Ftracker.openbittorrent.com%3A80","udp%3A%2F%2Fopen.demonii.com%3A1337","udp%3A%2F%2Ftracker.coppersurfer.tk%3A6969","udp%3A%2F%2Fexodus.desync.com%3A6969"],"infoHash":"1a5139b24fef1c669ac9558511b752b57f7f0000","infoHashBuffer":{"type":"Buffer","data":[26,81,57,178,79,239,28,102,154,201,85,133,17,183,82,181,127,127,0,0]},"announce":[],"urlList":[]}}